<svg id="Layer_1" data-name="Layer 1" xmlns="http://www.w3.org/2000/svg" viewBox="0 0 935.68 252.15"><defs><style>.cls-1{fill:#333f48;}.cls-2{fill:#0047bb;}</style></defs><title>Artboard 2</title><polygon class="cls-1" points="303.61 224.77 303.61 228.73 307.82 228.73 307.82 251.06 311.79 251.06 311.79 228.73 315.98 228.73 315.98 224.77 303.61 224.77"/><path class="cls-1" d="M329.39,224.45a6.27,6.27,0,0,1,6.3,6.3v14.34a6.28,6.28,0,0,1-6.3,6.31,6,6,0,0,1-4.43-1.85,6.08,6.08,0,0,1-1.82-4.46V230.75a6.28,6.28,0,0,1,6.25-6.3m2.17,6.22a2.16,2.16,0,0,0-.66-1.6,2.18,2.18,0,0,0-1.61-.66,2.23,2.23,0,0,0-1.61.66,2.17,2.17,0,0,0-.67,1.6v14.4a2.27,2.27,0,0,0,2.28,2.26,2.18,2.18,0,0,0,1.61-.66,2.21,2.21,0,0,0,.66-1.6Z"/><path class="cls-1" d="M349.87,224.77a6,6,0,0,1,4.86,1.83A6.61,6.61,0,0,1,356.1,231v3.82a6.13,6.13,0,0,1-2.11,4.71l2.93,11.49h-4.27l-2.42-9.93h-2.64v9.92h-4V224.77Zm2.37,6.34a2,2,0,0,0-2.26-2.29h-2.39v8.4H350a2.14,2.14,0,0,0,1.6-.67,2.2,2.2,0,0,0,.66-1.61Z"/><path class="cls-1" d="M371,224.77a6,6,0,0,1,4.86,1.83,6.61,6.61,0,0,1,1.37,4.44v3.82a6.11,6.11,0,0,1-2.12,4.71l2.94,11.49h-4.28l-2.42-9.93h-2.63v9.92h-4V224.77Zm2.36,6.34a2,2,0,0,0-2.25-2.29h-2.39v8.4h2.39a2.14,2.14,0,0,0,1.6-.67,2.23,2.23,0,0,0,.65-1.61Z"/><polygon class="cls-1" points="388.75 240.05 383.44 224.76 387.8 224.76 390.75 234.21 393.67 224.76 398.05 224.76 392.71 240.05 392.71 251.06 388.75 251.06 388.75 240.05"/><polygon class="cls-1" points="423.46 239.93 423.46 251.06 419.5 251.06 419.5 224.77 423.46 224.77 423.46 235.94 428.22 235.94 428.22 224.77 432.19 224.77 432.19 251.06 428.22 251.06 428.22 239.93 423.46 239.93"/><path class="cls-1" d="M445.05,245l-1,6H440l4.46-26.29h5.46l4.4,26.29h-4.15l-.94-6Zm2.08-14.23-1.47,10.37h2.94Z"/><path class="cls-1" d="M468.3,224.77a6,6,0,0,1,4.86,1.83,6.61,6.61,0,0,1,1.37,4.44v3.82a6.11,6.11,0,0,1-2.12,4.71l2.94,11.49h-4.28l-2.42-9.93H466v9.92h-4V224.77Zm2.36,6.34a2,2,0,0,0-2.26-2.29H466v8.4h2.38a2.15,2.15,0,0,0,1.61-.67,2.23,2.23,0,0,0,.65-1.61Z"/><path class="cls-1" d="M489.42,224.77a6,6,0,0,1,4.86,1.83,6.61,6.61,0,0,1,1.37,4.44v3.82a6.1,6.1,0,0,1-2.11,4.71l2.93,11.49H492.2l-2.42-9.93h-2.64v9.92h-4V224.77Zm2.37,6.34a2,2,0,0,0-2.26-2.29h-2.39v8.4h2.39a2.17,2.17,0,0,0,1.61-.67,2.23,2.23,0,0,0,.65-1.61Z"/><rect class="cls-1" x="504.31" y="224.77" width="3.96" height="26.3"/><path class="cls-1" d="M529.12,244.53a7.34,7.34,0,0,1-1.42,4.7,5.06,5.06,0,0,1-2.73,1.86,7,7,0,0,1-2.21.31,6.24,6.24,0,0,1-3.86-1.16,6.54,6.54,0,0,1-2-2.57,10,10,0,0,1-.86-3.74l3.76-.26A5.68,5.68,0,0,0,521,247a2,2,0,0,0,1.63.74,2.47,2.47,0,0,0,2.08-1.27,3.19,3.19,0,0,0,.41-1.75,4.88,4.88,0,0,0-1.49-3.27l-3.54-3.33a15,15,0,0,1-2.78-3.41,8,8,0,0,1-.88-3.7,6.43,6.43,0,0,1,2.41-5.43,6,6,0,0,1,3.69-1.11,6.65,6.65,0,0,1,3.64,1,5.43,5.43,0,0,1,1.89,2,7.88,7.88,0,0,1,.88,3l-3.81.69a4.5,4.5,0,0,0-.92-2.51,1.94,1.94,0,0,0-1.58-.66,1.8,1.8,0,0,0-1.65,1,3.68,3.68,0,0,0-.47,1.93,5.79,5.79,0,0,0,1.56,3.67,14,14,0,0,0,1.76,1.68c.92.77,1.53,1.3,1.83,1.61a14.13,14.13,0,0,1,2.27,2.9,9.26,9.26,0,0,1,.6,1.24,7.23,7.23,0,0,1,.59,2.52"/><rect class="cls-1" x="550.59" y="224.77" width="3.96" height="26.3"/><polygon class="cls-1" points="566.98 224.76 572.23 242.43 572.23 224.76 576.2 224.76 576.2 251.06 571.95 251.06 566.5 234.22 566.5 251.06 562.53 251.06 562.53 224.76 566.98 224.76"/><polygon class="cls-1" points="588.02 228.73 583.81 228.73 583.81 224.77 596.18 224.77 596.18 228.73 591.99 228.73 591.99 251.06 588.02 251.06 588.02 228.73"/><polygon class="cls-1" points="603.8 251.06 603.8 224.77 615.09 224.77 615.09 228.73 607.76 228.73 607.76 235.94 613.11 235.94 613.11 239.9 607.76 239.9 607.76 247.1 615.09 247.1 615.09 251.06 603.8 251.06"/><path class="cls-1" d="M628.53,251.4a6.28,6.28,0,0,1-6.29-6.27V230.72a6.28,6.28,0,1,1,12.56,0v3h-4.11v-3.07a2.29,2.29,0,0,0-2.29-2.29,2.14,2.14,0,0,0-1.6.67,2.2,2.2,0,0,0-.66,1.62v14.43a2.22,2.22,0,0,0,.66,1.62,2.17,2.17,0,0,0,1.6.66,2.27,2.27,0,0,0,2.29-2.28V239.9h-2.2v-4h6.31v9.19a6,6,0,0,1-1.84,4.44,6.07,6.07,0,0,1-4.43,1.83"/><path class="cls-1" d="M648.91,224.77a6,6,0,0,1,4.86,1.83,6.61,6.61,0,0,1,1.37,4.44v3.82a6.11,6.11,0,0,1-2.12,4.71L656,251.06h-4.28l-2.42-9.93h-2.63v9.92h-4V224.77Zm2.36,6.34a2,2,0,0,0-2.25-2.29h-2.39v8.4H649a2.14,2.14,0,0,0,1.6-.67,2.23,2.23,0,0,0,.65-1.61Z"/><path class="cls-1" d="M668.66,245l-1,6h-4.13L668,224.77h5.46l4.4,26.29h-4.15l-.94-6Zm2.08-14.23-1.47,10.37h2.94Z"/><polygon class="cls-1" points="686.17 228.73 681.96 228.73 681.96 224.77 694.33 224.77 694.33 228.73 690.13 228.73 690.13 251.06 686.17 251.06 686.17 228.73"/><rect class="cls-1" x="701.95" y="224.77" width="3.96" height="26.3"/><path class="cls-1" d="M720.1,224.45a6.27,6.27,0,0,1,6.3,6.3v14.34a6.28,6.28,0,0,1-6.3,6.31,6,6,0,0,1-4.43-1.85,6.08,6.08,0,0,1-1.82-4.46V230.75a6.28,6.28,0,0,1,6.25-6.3m2.17,6.22a2.16,2.16,0,0,0-.66-1.6,2.18,2.18,0,0,0-1.61-.66,2.23,2.23,0,0,0-1.61.66,2.17,2.17,0,0,0-.67,1.6v14.4a2.27,2.27,0,0,0,2.28,2.26,2.18,2.18,0,0,0,1.61-.66,2.21,2.21,0,0,0,.66-1.6Z"/><polygon class="cls-1" points="738.76 224.76 744.01 242.43 744.01 224.76 747.98 224.76 747.98 251.06 743.73 251.06 738.27 234.22 738.27 251.06 734.31 251.06 734.31 224.76 738.76 224.76"/><path class="cls-1" d="M782.55,244.53a7.35,7.35,0,0,1-1.43,4.7,5,5,0,0,1-2.73,1.86,7,7,0,0,1-2.2.31,6.25,6.25,0,0,1-3.87-1.16,6.61,6.61,0,0,1-2-2.57,10.23,10.23,0,0,1-.87-3.74l3.76-.26a5.75,5.75,0,0,0,1.23,3.31,2,2,0,0,0,1.63.74,2.48,2.48,0,0,0,2.08-1.27,3.28,3.28,0,0,0,.4-1.75,4.83,4.83,0,0,0-1.49-3.27l-3.53-3.33a14.74,14.74,0,0,1-2.78-3.41,7.92,7.92,0,0,1-.88-3.7,6.43,6.43,0,0,1,2.4-5.43,6,6,0,0,1,3.7-1.11,6.64,6.64,0,0,1,3.63,1,5.43,5.43,0,0,1,1.89,2,7.71,7.71,0,0,1,.88,3l-3.81.69a4.43,4.43,0,0,0-.92-2.51,1.92,1.92,0,0,0-1.57-.66,1.83,1.83,0,0,0-1.66,1,3.68,3.68,0,0,0-.46,1.93,5.79,5.79,0,0,0,1.56,3.67,13.31,13.31,0,0,0,1.76,1.68c.92.77,1.53,1.3,1.83,1.61a14.06,14.06,0,0,1,2.26,2.9A10.84,10.84,0,0,1,782,242a7.47,7.47,0,0,1,.59,2.52"/><path class="cls-1" d="M796.47,224.45a6.27,6.27,0,0,1,6.29,6.3v14.34a6.28,6.28,0,0,1-6.29,6.31,6,6,0,0,1-4.44-1.85,6.09,6.09,0,0,1-1.83-4.46V230.75a6.3,6.3,0,0,1,6.27-6.3m2.16,6.22a2.16,2.16,0,0,0-.66-1.6,2.28,2.28,0,0,0-3.21,0,2.13,2.13,0,0,0-.67,1.6v14.4a2.28,2.28,0,0,0,3.88,1.6,2.21,2.21,0,0,0,.66-1.6Z"/><polygon class="cls-1" points="821.51 251.06 810.7 251.06 810.7 224.77 814.66 224.77 814.66 247.13 821.51 247.13 821.51 251.06"/><path class="cls-1" d="M834.91,251.4a6.25,6.25,0,0,1-6.26-6.25V224.77h3.88v20.34a2.14,2.14,0,0,0,.67,1.6,2.23,2.23,0,0,0,1.61.66,2.24,2.24,0,0,0,2.26-2.26V224.77h4.14v20.38a6,6,0,0,1-1.84,4.44,6.13,6.13,0,0,1-4.46,1.81"/><polygon class="cls-1" points="853.02 228.73 848.81 228.73 848.81 224.77 861.19 224.77 861.19 228.73 856.99 228.73 856.99 251.06 853.02 251.06 853.02 228.73"/><rect class="cls-1" x="868.8" y="224.77" width="3.96" height="26.3"/><path class="cls-1" d="M887,224.45a6.28,6.28,0,0,1,6.3,6.3v14.34a6.3,6.3,0,0,1-6.3,6.31,6,6,0,0,1-4.44-1.85,6.12,6.12,0,0,1-1.82-4.46V230.75a6.28,6.28,0,0,1,6.26-6.3m2.16,6.22a2.16,2.16,0,0,0-.66-1.6,2.28,2.28,0,0,0-3.21,0,2.13,2.13,0,0,0-.67,1.6v14.4a2.28,2.28,0,0,0,3.88,1.6,2.21,2.21,0,0,0,.66-1.6Z"/><polygon class="cls-1" points="905.62 224.76 910.87 242.43 910.87 224.76 914.83 224.76 914.83 251.06 910.58 251.06 905.13 234.22 905.13 251.06 901.16 251.06 901.16 224.76 905.62 224.76"/><path class="cls-1" d="M935.68,244.53a7.29,7.29,0,0,1-1.43,4.7,5,5,0,0,1-2.72,1.86,7.06,7.06,0,0,1-2.21.31,6.24,6.24,0,0,1-3.86-1.16,6.54,6.54,0,0,1-2-2.57,10.23,10.23,0,0,1-.87-3.74l3.77-.26a5.68,5.68,0,0,0,1.22,3.31,2,2,0,0,0,1.63.74,2.47,2.47,0,0,0,2.08-1.27,3.19,3.19,0,0,0,.4-1.75,4.86,4.86,0,0,0-1.48-3.27l-3.53-3.33a14.82,14.82,0,0,1-2.79-3.41A8,8,0,0,1,923,231a6.43,6.43,0,0,1,2.41-5.43,6,6,0,0,1,3.69-1.11,6.65,6.65,0,0,1,3.64,1,5.43,5.43,0,0,1,1.89,2,7.7,7.7,0,0,1,.87,3l-3.8.69a4.5,4.5,0,0,0-.92-2.51,1.94,1.94,0,0,0-1.58-.66,1.8,1.8,0,0,0-1.65,1,3.68,3.68,0,0,0-.47,1.93,5.85,5.85,0,0,0,1.56,3.67,14,14,0,0,0,1.76,1.68c.92.77,1.53,1.3,1.83,1.61a14.13,14.13,0,0,1,2.27,2.9,9.26,9.26,0,0,1,.6,1.24,7.23,7.23,0,0,1,.59,2.52"/><path class="cls-1" d="M453.58,6.53l.16,33.68h-43A8.84,8.84,0,0,0,401.9,49V171.67a6.53,6.53,0,0,1-6.53,6.53H361.92a6.53,6.53,0,0,1-6.53-6.53V49a8.84,8.84,0,0,0-8.81-8.81H304l-.25-33.68A6.53,6.53,0,0,1,310.24,0H447.05a6.53,6.53,0,0,1,6.53,6.53"/><path class="cls-1" d="M533.82,0V63.8A7.23,7.23,0,0,0,541.05,71h31.79a7.23,7.23,0,0,0,7.23-7.23V0h40a6.53,6.53,0,0,1,6.54,6.53V171.67a6.53,6.53,0,0,1-6.54,6.53h-40V118.42a7.22,7.22,0,0,0-7.23-7.23H541.05a7.22,7.22,0,0,0-7.23,7.23V178.2h-40a6.53,6.53,0,0,1-6.54-6.53V6.53A6.53,6.53,0,0,1,493.84,0Z"/><path class="cls-1" d="M735.54,138h17.93v33.63a6.53,6.53,0,0,1-6.53,6.53H667a6.53,6.53,0,0,1-6.53-6.53V138h17.94a5.32,5.32,0,0,0,5.32-5.32V45.21a5,5,0,0,0-5.05-5.05H660.44V6.53A6.54,6.54,0,0,1,667,0h80a6.53,6.53,0,0,1,6.53,6.53V40.16h-18.2a5.06,5.06,0,0,0-5.06,5.05v87.51a5.33,5.33,0,0,0,5.33,5.32"/><path class="cls-1" d="M862.82,69.83c-17.06-1.51-28.68-4.27-28.68-15.31V50.58a13.37,13.37,0,0,1,13.39-13.37h23.61a13.37,13.37,0,0,1,13.39,13.37v3.94h37.39a6.44,6.44,0,0,0,6.52-7.18,50.45,50.45,0,0,0-15.84-32.2C902.05,5.15,887.79,0,873.26,0H843a57.14,57.14,0,0,0-35.77,12.14c-12.19,9.76-19.9,23.92-19.9,42.36,0,37.66,33.86,49.69,67.19,52,13.43,1,33.34,2,33.34,17.56v4.44a13.38,13.38,0,0,1-13.39,13.39H845.2a13.39,13.39,0,0,1-13.39-13.39V124H792.38a6.43,6.43,0,0,0-6.5,7.33c1.55,14.28,8.53,25.5,18.77,33.73,10.88,8.75,24.66,13.09,38.62,13.09h34.34A61.87,61.87,0,0,0,912.15,168c14.07-9.47,23.53-23.64,23.53-42.44,0-42.67-34.35-52.2-72.86-55.71"/><path class="cls-2" d="M238,115.72a23.32,23.32,0,0,0-31.27,10.52,14.56,14.56,0,0,0-.56,1.46l-30.62-4.23c-.07,1.54-.21,3.06-.41,4.58L159.39,126a39.94,39.94,0,0,0-20.67-40l6.83-14.39q2.14,1.13,4.19,2.43l13.11-27.47a23.31,23.31,0,1,0-11.76-6.19,12.46,12.46,0,0,0,1.22,1L139.24,68.77c1.54.57,3.07,1.22,4.56,1.93L136.92,85A40.45,40.45,0,0,0,108,82.93a41.24,41.24,0,0,0-16.33,9.71l-11.48-11c1.16-1.14,2.77-2.69,4-3.73L61.87,56.46a23.28,23.28,0,1,0-9.5,9.27c.46-.24.86-.58,1.3-.84L76,86.31c1.33-1.67,2.79-3.2,2.79-3.2l11.57,11a39.62,39.62,0,0,0-6.61,44.44l-14,7.58c-.73-1.48-1.42-3-2-4.55L40.44,156.09A23.29,23.29,0,1,0,46.33,168a9.87,9.87,0,0,0-.41-1.49L73.07,152c-.87-1.32-1.68-2.7-2.44-4.11l14-7.58a40,40,0,0,0,40.45,20.46l2.88,15.67c-1.59.24-3.19.43-4.79.52l5.42,30.37a23.28,23.28,0,1,0,13.15-1.92,10.33,10.33,0,0,0-1.55-.08L134.75,175c-1.61.46-3.22.82-4.84,1.13L127,160.48a42.46,42.46,0,0,0,4.39-1.06,40,40,0,0,0,27.67-31.49l15.78,2.1c-.28,1.7-.62,3.39-1.05,5.06l30.67,4.25A23.31,23.31,0,1,0,238,115.72"/></svg>